<svg xmlns="http://www.w3.org/2000/svg" xmlns:xlink="http://www.w3.org/1999/xlink" version="1.1" x="0px" y="0px" viewBox="0 0 100 125" style="enable-background:new 0 0 100 100;" xml:space="preserve"><g><g><path d="M71,6.4h-43v12.1h3V9.4h37.9v10.6h11v56.2h-5.9v3h8.9V17.8L71,6.4z M71.9,11.4l5.8,5.5h-5.8V11.4z"/><path d="M16.8,20.9v72.7h54.9V32.3L59.8,20.9H16.8z M60.7,25.9l5.8,5.5h-5.8V25.9z M19.8,90.6V23.9h37.9v10.6h11v56.2H19.8z"/><path d="M49.7,36.6H23.8v14.9h25.9V36.6z M46.7,48.5H26.8v-8.9h19.9V48.5z"/><rect x="25.3" y="58.7" width="36" height="3"/><rect x="25.3" y="67.1" width="36" height="3"/></g></g><text x="0" y="115" fill="#000000" font-size="5px" font-weight="bold" font-family="'Helvetica Neue', Helvetica, Arial-Unicode, Arial, Sans-serif">Created by Bestdesignmarket</text><text x="0" y="120" fill="#000000" font-size="5px" font-weight="bold" font-family="'Helvetica Neue', Helvetica, Arial-Unicode, Arial, Sans-serif">from the Noun Project</text></svg>
